<svg width="100" height="100" viewBox="0 0 100 100" xmlns="http://www.w3.org/2000/svg">
  <defs>
    <linearGradient id="linuxdoGradient" x1="0%" y1="0%" x2="100%" y2="100%">
      <stop offset="0%" style="stop-color:#4CAF50;stop-opacity:1" />
      <stop offset="100%" style="stop-color:#45A049;stop-opacity:1" />
    </linearGradient>
  </defs>
  <rect width="100" height="100" rx="20" fill="url(#linuxdoGradient)"/>
  <path d="M50 25 C38.95 25 30 33.95 30 45 C30 56.05 38.95 65 50 65 C61.05 65 70 56.05 70 45 C70 33.95 61.05 25 50 25 Z M50 30 C58.28 30 65 36.72 65 45 C65 53.28 58.28 60 50 60 C41.72 60 35 53.28 35 45 C35 36.72 41.72 30 50 30 Z" fill="white"/>
  <path d="M50 38 C46.69 38 44 40.69 44 44 C44 47.31 46.69 50 50 50 C53.31 50 56 47.31 56 44 C56 40.69 53.31 38 50 38 Z" fill="white"/>
  <path d="M40 52 L40 55 L43 52 Z" fill="white"/>
  <path d="M60 52 L60 55 L57 52 Z" fill="white"/>
</svg>